#N canvas 1102 375 1090 744 12;
#X obj 37 199 adc~;
#X obj 305 684 dac~;
#X obj 201 295 expr~ round($v1 / $f2);
#X obj 221 325 expr~ round($v1 / $f2);
#X floatatom 525 293 7 0.0001 1 0 - - - 0;
#X obj 126 484 *~;
#X obj 167 483 *~;
#X obj 530 149 hsl 100 20 1 16 0 0 empty empty BitDepth -2 -10 0 12 #c7c6ff #000000 #000000 0 1;
#X obj 539 182 int;
#X floatatom 560 207 5 0 0 0 - - - 0;
#X floatatom 566 413 5 0 100 0 - - - 0;
#X obj 257 602 *~;
#X obj 317 604 *~;
#X obj 604 383 hsl 100 20 0 100 0 0 empty empty WetDryMix -2 -10 0 12 #c6feff #000000 #000000 0 1;
#X obj 378 603 *~;
#X obj 436 602 *~;
#X obj 283 647 +~;
#X obj 347 649 +~;
#X floatatom 482 527 5 0 0 0 Wet - - 0;
#X floatatom 529 550 5 0 0 0 Dry - - 0;
#X obj 352 80 hsl 100 20 20 1500 0 0 empty empty DownsampleFactor -2 -10 0 12 #e3c6ff #000000 #000000 0 1;
#X floatatom 349 111 5 0 0 0 - - - 0;
#X msg 349 142 \$1 50;
#X obj 349 171 line 0 3;
#X obj 240 255 samphold~;
#X obj 350 199 mtof;
#X obj 351 229 phasor~ 1;
#X obj 323 37 r DownsampleFactor @hv_param 20 1500 1500 float;
#X obj 512 105 r BitDepth @hv_param 1 16 16 int;
#X obj 573 340 r WetDryMix @hv_param 0 100 50 float;
#X obj 549 237 pow;
#X floatatom 518 208 5 0 0 0 - - - 0;
#X obj 525 264 /;
#X floatatom 505 238 5 0 0 0 - - - 0;
#X obj 559 445 /;
#X floatatom 611 413 5 0 0 0 - - - 0;
#X obj 581 522 -;
#X floatatom 542 491 5 0 0 0 - - - 0;
#X connect 0 0 24 0;
#X connect 0 0 15 0;
#X connect 0 0 14 0;
#X connect 2 0 5 0;
#X connect 3 0 6 0;
#X connect 4 0 2 1;
#X connect 4 0 3 1;
#X connect 4 0 5 1;
#X connect 4 0 6 1;
#X connect 5 0 11 0;
#X connect 6 0 12 0;
#X connect 7 0 8 0;
#X connect 8 0 9 0;
#X connect 9 0 30 1;
#X connect 10 0 34 0;
#X connect 11 0 16 0;
#X connect 12 0 17 0;
#X connect 13 0 10 0;
#X connect 14 0 16 1;
#X connect 15 0 17 1;
#X connect 16 0 1 0;
#X connect 17 0 1 1;
#X connect 18 0 11 1;
#X connect 18 0 12 1;
#X connect 19 0 14 1;
#X connect 19 0 15 1;
#X connect 20 0 21 0;
#X connect 21 0 22 0;
#X connect 22 0 23 0;
#X connect 23 0 25 0;
#X connect 24 0 2 0;
#X connect 24 0 3 0;
#X connect 25 0 26 0;
#X connect 26 0 24 1;
#X connect 27 0 20 0;
#X connect 28 0 7 0;
#X connect 29 0 13 0;
#X connect 30 0 32 1;
#X connect 31 0 30 0;
#X connect 32 0 4 0;
#X connect 33 0 32 1;
#X connect 34 0 36 1;
#X connect 34 0 18 0;
#X connect 35 0 34 1;
#X connect 36 0 19 0;
#X connect 37 0 36 0;
